<?xml version="1.0" encoding="UTF-8"?>
<svg width="352px" height="350px" viewBox="0 0 352 350" version="1.1" xmlns="http://www.w3.org/2000/svg" xmlns:xlink="http://www.w3.org/1999/xlink">
    <!-- Generator: Sketch 57.1 (83088) - https://sketch.com -->
    <title>top100 logo</title>
    <desc>Created with Sketch.</desc>
    <defs>
        <radialGradient cx="56.8811764%" cy="51.6698416%" fx="56.8811764%" fy="51.6698416%" r="74.8301975%" id="radialGradient-1">
            <stop stop-color="#FFFFFF" offset="0%"></stop>
            <stop stop-color="#00F0FC" offset="100%"></stop>
        </radialGradient>
    </defs>
    <g id="Page-1" stroke="none" stroke-width="1" fill="none" fill-rule="evenodd">
        <g id="top100-logo" transform="translate(1.851768, -0.253048)">
            <rect id="Rectangle" fill="url(#radialGradient-1)" x="0.148232278" y="0.253048327" width="350" height="350"></rect>
            <g id="1st" transform="translate(8.000000, 36.604816)" fill="#FE00FF" stroke="#FF00FF" stroke-width="30">
                <path d="M65.6482323,275.148232 L65.6482323,28.1482323" id="top100-logo-line" stroke-linecap="square"></path>
                <path d="M35.5,85 L35.5,-13" id="top100-logo-arrow-hat" transform="translate(35.500000, 36.000000) rotate(45.000000) translate(-35.500000, -36.000000) "></path>
                <path d="M64.6482323,210.148232 L64.6482323,93.1482323" id="top100-logo-arrow-hat" transform="translate(64.648232, 151.648232) rotate(90.000000) translate(-64.648232, -151.648232) "></path>
            </g>
            <path d="M255.315494,72.3847763 L254.608387,5" id="top100-logo-arrow-hat-copy-2" stroke="#FF00FF" stroke-width="25" transform="translate(255.108387, 39.000000) rotate(46.000000) translate(-255.108387, -39.000000) "></path>
            <path d="M273.148232,142.253048 L273.148232,25.2530483" id="top100-logo-arrow-hat-copy" stroke="#FF00FF" stroke-width="30" transform="translate(273.148232, 83.753048) rotate(180.000000) translate(-273.148232, -83.753048) "></path>
            <circle id="Oval" stroke="#FF00FF" stroke-width="25" cx="198.648232" cy="179.753048" r="43"></circle>
            <circle id="Oval-Copy-4" stroke="#FF00FF" stroke-width="22" cx="308.148232" cy="64.2530483" r="29"></circle>
            <circle id="Oval-Copy-3" stroke="#FF00FF" stroke-width="25" cx="291.648232" cy="280.753048" r="43"></circle>
        </g>
    </g>
</svg>